<?xml version="1.0" encoding="utf-8"?>
<!-- Svg Vector Icons : http://www.onlinewebfonts.com/icon -->
<!DOCTYPE svg PUBLIC "-//W3C//DTD SVG 1.1//EN" "http://www.w3.org/Graphics/SVG/1.1/DTD/svg11.dtd">
<svg version="1.1" xmlns="http://www.w3.org/2000/svg" xmlns:xlink="http://www.w3.org/1999/xlink" x="0px" y="0px" viewBox="0 0 256 256" enable-background="new 0 0 256 256" xml:space="preserve">
<metadata> Svg Vector Icons : http://www.onlinewebfonts.com/icon </metadata>
<g><g><g><path fill="#000000" d="M172.3,24.8l44,44l0.2,0.2l-44.3,44.2l-14.8-3.7V83.8H83.8c-12.2,0-22.6,4.3-31.2,13c-8.7,8.7-13,19.1-13,31.2c0,10.8,3.3,20.2,10,28.1l-20.9,20.9C16.2,163.1,10,146.7,10,128c0-20.3,7.2-37.7,21.6-52.1C46,61.5,63.4,54.3,83.7,54.3h73.8V28.5L172.3,24.8z M227.4,79.1c12.4,13.8,18.6,30.1,18.6,49c0,20.3-7.2,37.7-21.6,52.1s-31.8,21.6-52.1,21.6H98.5v25.8l-14.8,3.7L39.5,187l44.3-44.3l14.8,3.7v25.8h73.8c12.2,0,22.6-4.3,31.2-13c8.7-8.7,13-19.1,13-31.2c0-10.8-3.3-20.2-10-28.1L227,79.5L227.4,79.1z"/></g></g></g>
</svg>