<?xml version="1.0" encoding="utf-8"?>
<!-- Svg Vector Icons : http://www.onlinewebfonts.com/icon -->
<!DOCTYPE svg PUBLIC "-//W3C//DTD SVG 1.1//EN" "http://www.w3.org/Graphics/SVG/1.1/DTD/svg11.dtd">
<svg version="1.1" xmlns="http://www.w3.org/2000/svg" xmlns:xlink="http://www.w3.org/1999/xlink" x="0px" y="0px" viewBox="0 0 256 256" enable-background="new 0 0 256 256" xml:space="preserve">
<metadata> Svg Vector Icons : http://www.onlinewebfonts.com/icon </metadata>
<g><g><g><path fill="#000000" d="M69,127.1c-32.3,50.1-58.8,91.4-59,91.9c-0.3,0.8,13.2,0.9,118,0.9c104.4,0,118.3-0.1,118-0.9c-0.5-1.3-117.6-182.8-118-182.8C127.8,36.1,101.3,77.1,69,127.1z M134.4,93.7c1,0.7,2.7,2.5,3.7,3.9l1.7,2.6l0.2,28.4c0.1,15.6,0,29-0.2,29.7c-0.9,3.6-7.5,8.3-11.7,8.3c-4.9,0-7.7-1.6-10.7-6.3l-1.7-2.6v-28.7v-28.8l1.3-2c0.7-1.1,2.5-2.8,4.1-3.9c2.5-1.7,3.2-1.9,7-1.9C131.7,92.4,132.8,92.6,134.4,93.7z M132.2,173.1c2.8,1,4.2,2.3,6.3,5.5c1.3,2.1,1.6,3.2,1.6,6.3c0,4.3-1.1,7-3.7,9c-3.8,2.8-5.6,3.4-9.6,3.2c-4.8-0.2-6.9-1.6-9.3-5.9c-1.4-2.5-1.7-3.7-1.7-6.7c0-4.2,0.9-6.2,3.6-8.5C123.6,172.6,127.8,171.6,132.2,173.1z"/></g></g></g>
</svg>